<?xml version="1.0" encoding="UTF-8" standalone="no"?>
<!-- Created with Inkscape (http://www.inkscape.org/) -->

<svg
   xmlns:dc="http://purl.org/dc/elements/1.1/"
   xmlns:cc="http://creativecommons.org/ns#"
   xmlns:rdf="http://www.w3.org/1999/02/22-rdf-syntax-ns#"
   xmlns:svg="http://www.w3.org/2000/svg"
   xmlns="http://www.w3.org/2000/svg"
   xmlns:sodipodi="http://sodipodi.sourceforge.net/DTD/sodipodi-0.dtd"
   xmlns:inkscape="http://www.inkscape.org/namespaces/inkscape"
   width="744.09448819"
   height="1052.3622047"
   id="svg2"
   version="1.1"
   inkscape:version="0.48.0 r9654"
   sodipodi:docname="icon.svg">
  <defs
     id="defs4" />
  <sodipodi:namedview
     id="base"
     pagecolor="#ffffff"
     bordercolor="#666666"
     borderopacity="1.0"
     inkscape:pageopacity="0.0"
     inkscape:pageshadow="2"
     inkscape:zoom="1"
     inkscape:cx="164.7213"
     inkscape:cy="954.95146"
     inkscape:document-units="px"
     inkscape:current-layer="layer1"
     showgrid="true"
     inkscape:window-width="1280"
     inkscape:window-height="750"
     inkscape:window-x="-8"
     inkscape:window-y="-8"
     inkscape:window-maximized="1"
     inkscape:snap-global="false">
    <inkscape:grid
       type="xygrid"
       id="grid2985"
       empspacing="5"
       visible="true"
       enabled="true"
       snapvisiblegridlinesonly="true"
       spacingx="25px"
       spacingy="25px" />
  </sodipodi:namedview>
  <metadata
     id="metadata7">
    <rdf:RDF>
      <cc:Work
         rdf:about="">
        <dc:format>image/svg+xml</dc:format>
        <dc:type
           rdf:resource="http://purl.org/dc/dcmitype/StillImage" />
        <dc:title></dc:title>
      </cc:Work>
    </rdf:RDF>
  </metadata>
  <g
     inkscape:label="Layer 1"
     inkscape:groupmode="layer"
     id="layer1">
    <path
       style="fill:#ffffff;fill-opacity:1;stroke:#000000;stroke-width:1;stroke-linecap:square;stroke-linejoin:round;stroke-miterlimit:4;stroke-opacity:1;stroke-dasharray:none;stroke-dashoffset:0"
       d="m 6.8749999,5.6142646 0.426628,14.7389424 4.3108811,-2.488889 2.761194,4.782528 3.502593,-2.022222 -2.761194,-4.782529 4.310881,-2.488888 L 6.8749999,5.6142646 z"
       id="rect3760"
       inkscape:connector-curvature="0" />
    <path
       inkscape:connector-curvature="0"
       id="path3821"
       d="m 32.014087,10.375 0,2.64279 -2.46429,1.833773 2.46429,1.833772 0,2.64279 -6,-4.476562 6,-4.476563 z"
       style="fill:#ffffff;fill-opacity:1;stroke:#000000;stroke-width:1;stroke-linecap:square;stroke-linejoin:round;stroke-miterlimit:4;stroke-opacity:1;stroke-dashoffset:0" />
    <path
       style="fill:#ffffff;fill-opacity:1;stroke:#000000;stroke-width:1;stroke-linecap:square;stroke-linejoin:round;stroke-miterlimit:4;stroke-opacity:1;stroke-dashoffset:0"
       d="m 43.014087,10.375 0,2.64279 2.46429,1.833773 -2.46429,1.833772 0,2.64279 6,-4.476562 -6,-4.476563 z"
       id="path3823"
       inkscape:connector-curvature="0" />
    <path
       style="fill:#ffffff;fill-opacity:1;stroke:#000000;stroke-width:1;stroke-linecap:square;stroke-linejoin:round;stroke-miterlimit:4;stroke-opacity:1;stroke-dashoffset:0"
       d="m 33.037527,20.351562 2.64279,0 1.83377,2.464286 1.83377,-2.464286 2.64279,0 -4.47656,6 -4.47656,-6 z"
       id="path3825"
       inkscape:connector-curvature="0" />
    <path
       inkscape:connector-curvature="0"
       id="path3827"
       d="m 33.037527,9.3515625 2.64279,0 1.83377,-2.464286 1.83377,2.464286 2.64279,0 -4.47656,-6 -4.47656,6 z"
       style="fill:#ffffff;fill-opacity:1;stroke:#000000;stroke-width:1;stroke-linecap:square;stroke-linejoin:round;stroke-miterlimit:4;stroke-opacity:1;stroke-dashoffset:0" />
    <path
       style="fill:#ffffff;fill-opacity:1;stroke:#000000;stroke-width:1;stroke-linecap:square;stroke-linejoin:round;stroke-miterlimit:4;stroke-opacity:1;stroke-dashoffset:0"
       d="m 62.514087,3.34375 -4.46875,6 2.625,0 1,-1.34375 0,6 -5.96875,0 1.3125,-0.96875 0,-2.65625 -6,4.46875 6,4.5 0,-2.65625 -1.34375,-1 6,0 0,6 -1,-1.34375 -2.625,0 4.46875,6 4.46875,-6 -2.625,0 -1,1.34375 0,-6 6,0 -1.34375,1 0,2.65625 6,-4.5 -6,-4.46875 0,2.65625 1.3125,0.96875 -5.96875,0 0,-6 1,1.34375 2.625,0 -4.46875,-6 z"
       id="path3829"
       inkscape:connector-curvature="0" />
    <path
       sodipodi:type="arc"
       style="fill:none;stroke:#000000;stroke-width:3.32256389;stroke-linecap:square;stroke-linejoin:round;stroke-miterlimit:4;stroke-opacity:1;stroke-dasharray:none;stroke-dashoffset:0"
       id="path3842"
       sodipodi:cx="86"
       sodipodi:cy="15.112182"
       sodipodi:rx="11.75"
       sodipodi:ry="11.75"
       d="m 97.75,15.112182 a 11.75,11.75 0 0 1 -1.574202,5.875"
       transform="matrix(0.9029172,0,0,0.9029172,9.7910627,1.2903562)"
       sodipodi:start="0"
       sodipodi:end="0.52359878"
       sodipodi:open="true" />
    <path
       transform="matrix(0.9029172,0,0,0.9029172,9.7910627,1.2903562)"
       d="m 97.75,15.112182 a 11.75,11.75 0 0 1 -1.574202,5.875"
       sodipodi:ry="11.75"
       sodipodi:rx="11.75"
       sodipodi:cy="15.112182"
       sodipodi:cx="86"
       id="path3846"
       style="fill:none;stroke:#ffffff;stroke-width:1.1075213;stroke-linecap:square;stroke-linejoin:round;stroke-miterlimit:4;stroke-opacity:1;stroke-dasharray:none;stroke-dashoffset:0"
       sodipodi:type="arc"
       sodipodi:start="0"
       sodipodi:end="0.52359878"
       sodipodi:open="true" />
    <path
       sodipodi:open="true"
       sodipodi:end="1.0471976"
       sodipodi:start="0"
       transform="matrix(0.9029172,0,0,0.9029172,34.804965,1.2903562)"
       d="M 97.75,15.112182 A 11.75,11.75 0 0 1 91.875,25.28798"
       sodipodi:ry="11.75"
       sodipodi:rx="11.75"
       sodipodi:cy="15.112182"
       sodipodi:cx="86"
       id="path3848"
       style="fill:none;stroke:#000000;stroke-width:3.32256389;stroke-linecap:square;stroke-linejoin:round;stroke-miterlimit:4;stroke-opacity:1;stroke-dasharray:none;stroke-dashoffset:0"
       sodipodi:type="arc" />
    <path
       sodipodi:open="true"
       sodipodi:end="1.0471976"
       sodipodi:start="0"
       sodipodi:type="arc"
       style="fill:none;stroke:#ffffff;stroke-width:1.1075213;stroke-linecap:square;stroke-linejoin:round;stroke-miterlimit:4;stroke-opacity:1;stroke-dasharray:none;stroke-dashoffset:0"
       id="path3850"
       sodipodi:cx="86"
       sodipodi:cy="15.112182"
       sodipodi:rx="11.75"
       sodipodi:ry="11.75"
       d="M 97.75,15.112182 A 11.75,11.75 0 0 1 91.875,25.28798"
       transform="matrix(0.9029172,0,0,0.9029172,34.804965,1.2903562)" />
    <path
       sodipodi:type="arc"
       style="fill:none;stroke:#000000;stroke-width:3.32256389;stroke-linecap:square;stroke-linejoin:round;stroke-miterlimit:4;stroke-opacity:1;stroke-dasharray:none;stroke-dashoffset:0"
       id="path3852"
       sodipodi:cx="86"
       sodipodi:cy="15.112182"
       sodipodi:rx="11.75"
       sodipodi:ry="11.75"
       d="M 97.75,15.112182 A 11.75,11.75 0 0 1 86,26.862182"
       transform="matrix(0.9029172,0,0,0.9029172,59.818867,1.2903562)"
       sodipodi:start="0"
       sodipodi:end="1.5707963"
       sodipodi:open="true" />
    <path
       transform="matrix(0.9029172,0,0,0.9029172,59.818867,1.2903562)"
       d="M 97.75,15.112182 A 11.75,11.75 0 0 1 86,26.862182"
       sodipodi:ry="11.75"
       sodipodi:rx="11.75"
       sodipodi:cy="15.112182"
       sodipodi:cx="86"
       id="path3854"
       style="fill:none;stroke:#ffffff;stroke-width:1.1075213;stroke-linecap:square;stroke-linejoin:round;stroke-miterlimit:4;stroke-opacity:1;stroke-dasharray:none;stroke-dashoffset:0"
       sodipodi:type="arc"
       sodipodi:start="0"
       sodipodi:end="1.5707963"
       sodipodi:open="true" />
    <path
       sodipodi:open="true"
       sodipodi:end="2.0943951"
       sodipodi:start="0"
       transform="matrix(0.9029172,0,0,0.9029172,84.832769,1.2903562)"
       d="M 97.75,15.112182 A 11.75,11.75 0 0 1 80.125,25.28798"
       sodipodi:ry="11.75"
       sodipodi:rx="11.75"
       sodipodi:cy="15.112182"
       sodipodi:cx="86"
       id="path3856"
       style="fill:none;stroke:#000000;stroke-width:3.32256389;stroke-linecap:square;stroke-linejoin:round;stroke-miterlimit:4;stroke-opacity:1;stroke-dasharray:none;stroke-dashoffset:0"
       sodipodi:type="arc" />
    <path
       sodipodi:open="true"
       sodipodi:end="2.0943951"
       sodipodi:start="0"
       sodipodi:type="arc"
       style="fill:none;stroke:#ffffff;stroke-width:1.1075213;stroke-linecap:square;stroke-linejoin:round;stroke-miterlimit:4;stroke-opacity:1;stroke-dasharray:none;stroke-dashoffset:0"
       id="path3858"
       sodipodi:cx="86"
       sodipodi:cy="15.112182"
       sodipodi:rx="11.75"
       sodipodi:ry="11.75"
       d="M 97.75,15.112182 A 11.75,11.75 0 0 1 80.125,25.28798"
       transform="matrix(0.9029172,0,0,0.9029172,84.832769,1.2903562)" />
    <path
       sodipodi:type="arc"
       style="fill:none;stroke:#000000;stroke-width:3.32256389;stroke-linecap:square;stroke-linejoin:round;stroke-miterlimit:4;stroke-opacity:1;stroke-dasharray:none;stroke-dashoffset:0"
       id="path3860"
       sodipodi:cx="86"
       sodipodi:cy="15.112182"
       sodipodi:rx="11.75"
       sodipodi:ry="11.75"
       d="M 97.75,15.112182 A 11.75,11.75 0 0 1 75.824201,20.987181"
       transform="matrix(0.9029172,0,0,0.9029172,109.75829,1.2903562)"
       sodipodi:start="0"
       sodipodi:end="2.6179939"
       sodipodi:open="true" />
    <path
       transform="matrix(0.9029172,0,0,0.9029172,109.75829,1.2903562)"
       d="M 97.75,15.112182 A 11.75,11.75 0 0 1 75.824201,20.987181"
       sodipodi:ry="11.75"
       sodipodi:rx="11.75"
       sodipodi:cy="15.112182"
       sodipodi:cx="86"
       id="path3862"
       style="fill:none;stroke:#ffffff;stroke-width:1.1075213;stroke-linecap:square;stroke-linejoin:round;stroke-miterlimit:4;stroke-opacity:1;stroke-dasharray:none;stroke-dashoffset:0"
       sodipodi:type="arc"
       sodipodi:start="0"
       sodipodi:end="2.6179939"
       sodipodi:open="true" />
    <path
       sodipodi:open="true"
       sodipodi:end="3.1415927"
       sodipodi:start="0"
       transform="matrix(0.9029172,0,0,0.9029172,134.86058,1.2903562)"
       d="m 97.75,15.112182 a 11.75,11.75 0 1 1 -23.5,-1e-6"
       sodipodi:ry="11.75"
       sodipodi:rx="11.75"
       sodipodi:cy="15.112182"
       sodipodi:cx="86"
       id="path3864"
       style="fill:none;stroke:#000000;stroke-width:3.32256389;stroke-linecap:square;stroke-linejoin:round;stroke-miterlimit:4;stroke-opacity:1;stroke-dasharray:none;stroke-dashoffset:0"
       sodipodi:type="arc" />
    <path
       sodipodi:end="3.1415927"
       sodipodi:start="0"
       sodipodi:type="arc"
       style="fill:none;stroke:#ffffff;stroke-width:1.1075213;stroke-linecap:square;stroke-linejoin:round;stroke-miterlimit:4;stroke-opacity:1;stroke-dasharray:none;stroke-dashoffset:0"
       id="path3866"
       sodipodi:cx="86"
       sodipodi:cy="15.112182"
       sodipodi:rx="11.75"
       sodipodi:ry="11.75"
       d="m 97.75,15.112182 a 11.75,11.75 0 1 1 -23.5,-1e-6"
       transform="matrix(0.9029172,0,0,0.9029172,134.86058,1.2903562)"
       sodipodi:open="true" />
    <path
       sodipodi:type="arc"
       style="fill:none;stroke:#000000;stroke-width:3.32256389;stroke-linecap:square;stroke-linejoin:round;stroke-miterlimit:4;stroke-opacity:1;stroke-dasharray:none;stroke-dashoffset:0"
       id="path3868"
       sodipodi:cx="86"
       sodipodi:cy="15.112182"
       sodipodi:rx="11.75"
       sodipodi:ry="11.75"
       d="m 97.75,15.112182 a 11.75,11.75 0 1 1 -21.925799,-5.875"
       transform="matrix(0.9029172,0,0,0.9029172,159.87448,1.2903562)"
       sodipodi:start="0"
       sodipodi:end="3.6651914"
       sodipodi:open="true" />
    <path
       transform="matrix(0.9029172,0,0,0.9029172,159.87448,1.2903562)"
       d="m 97.75,15.112182 a 11.75,11.75 0 1 1 -21.925799,-5.875"
       sodipodi:ry="11.75"
       sodipodi:rx="11.75"
       sodipodi:cy="15.112182"
       sodipodi:cx="86"
       id="path3870"
       style="fill:none;stroke:#ffffff;stroke-width:1.1075213;stroke-linecap:square;stroke-linejoin:round;stroke-miterlimit:4;stroke-opacity:1;stroke-dasharray:none;stroke-dashoffset:0"
       sodipodi:type="arc"
       sodipodi:start="0"
       sodipodi:end="3.6651914"
       sodipodi:open="true" />
    <path
       sodipodi:open="true"
       sodipodi:end="4.1887902"
       sodipodi:start="0"
       transform="matrix(0.9029172,0,0,0.9029172,184.79999,1.2903562)"
       d="M 97.75,15.112182 A 11.75,11.75 0 1 1 80.125,4.9363832"
       sodipodi:ry="11.75"
       sodipodi:rx="11.75"
       sodipodi:cy="15.112182"
       sodipodi:cx="86"
       id="path3872"
       style="fill:none;stroke:#000000;stroke-width:3.32256389;stroke-linecap:square;stroke-linejoin:round;stroke-miterlimit:4;stroke-opacity:1;stroke-dasharray:none;stroke-dashoffset:0"
       sodipodi:type="arc" />
    <path
       sodipodi:open="true"
       sodipodi:end="4.1887902"
       sodipodi:start="0"
       sodipodi:type="arc"
       style="fill:none;stroke:#ffffff;stroke-width:1.1075213;stroke-linecap:square;stroke-linejoin:round;stroke-miterlimit:4;stroke-opacity:1;stroke-dasharray:none;stroke-dashoffset:0"
       id="path3874"
       sodipodi:cx="86"
       sodipodi:cy="15.112182"
       sodipodi:rx="11.75"
       sodipodi:ry="11.75"
       d="M 97.75,15.112182 A 11.75,11.75 0 1 1 80.125,4.9363832"
       transform="matrix(0.9029172,0,0,0.9029172,184.79999,1.2903562)" />
    <path
       sodipodi:type="arc"
       style="fill:none;stroke:#000000;stroke-width:3.32256389;stroke-linecap:square;stroke-linejoin:round;stroke-miterlimit:4;stroke-opacity:1;stroke-dasharray:none;stroke-dashoffset:0"
       id="path3876"
       sodipodi:cx="86"
       sodipodi:cy="15.112182"
       sodipodi:rx="11.75"
       sodipodi:ry="11.75"
       d="M 97.75,15.112182 A 11.75,11.75 0 1 1 86,3.3621817"
       transform="matrix(0.9029172,0,0,0.9029172,209.90228,1.2903562)"
       sodipodi:start="0"
       sodipodi:end="4.712389"
       sodipodi:open="true" />
    <path
       transform="matrix(0.9029172,0,0,0.9029172,209.90228,1.2903562)"
       d="M 97.75,15.112182 A 11.75,11.75 0 1 1 86,3.3621817"
       sodipodi:ry="11.75"
       sodipodi:rx="11.75"
       sodipodi:cy="15.112182"
       sodipodi:cx="86"
       id="path3878"
       style="fill:none;stroke:#ffffff;stroke-width:1.1075213;stroke-linecap:square;stroke-linejoin:round;stroke-miterlimit:4;stroke-opacity:1;stroke-dasharray:none;stroke-dashoffset:0"
       sodipodi:type="arc"
       sodipodi:start="0"
       sodipodi:end="4.712389"
       sodipodi:open="true" />
    <path
       sodipodi:open="true"
       sodipodi:end="5.2359878"
       sodipodi:start="0"
       transform="matrix(0.9029172,0,0,0.9029172,234.91618,1.2903562)"
       d="M 97.75,15.112182 A 11.75,11.75 0 1 1 91.875,4.9363834"
       sodipodi:ry="11.75"
       sodipodi:rx="11.75"
       sodipodi:cy="15.112182"
       sodipodi:cx="86"
       id="path3880"
       style="fill:none;stroke:#000000;stroke-width:3.32256389;stroke-linecap:square;stroke-linejoin:round;stroke-miterlimit:4;stroke-opacity:1;stroke-dasharray:none;stroke-dashoffset:0"
       sodipodi:type="arc" />
    <path
       sodipodi:end="5.2359878"
       sodipodi:start="0"
       sodipodi:type="arc"
       style="fill:none;stroke:#ffffff;stroke-width:1.1075213;stroke-linecap:square;stroke-linejoin:round;stroke-miterlimit:4;stroke-opacity:1;stroke-dasharray:none;stroke-dashoffset:0"
       id="path3882"
       sodipodi:cx="86"
       sodipodi:cy="15.112182"
       sodipodi:rx="11.75"
       sodipodi:ry="11.75"
       d="M 97.75,15.112182 A 11.75,11.75 0 1 1 91.875,4.9363834"
       transform="matrix(0.9029172,0,0,0.9029172,234.91618,1.2903562)"
       sodipodi:open="true" />
    <path
       sodipodi:type="arc"
       style="fill:none;stroke:#000000;stroke-width:3.32256389;stroke-linecap:square;stroke-linejoin:round;stroke-miterlimit:4;stroke-opacity:1;stroke-dasharray:none;stroke-dashoffset:0"
       id="path3884"
       sodipodi:cx="86"
       sodipodi:cy="15.112182"
       sodipodi:rx="11.75"
       sodipodi:ry="11.75"
       d="M 97.75,15.112182 A 11.75,11.75 0 1 1 96.175798,9.2371813"
       transform="matrix(0.9029172,0,0,0.9029172,259.84169,1.2903562)"
       sodipodi:start="0"
       sodipodi:end="5.7595865"
       sodipodi:open="true" />
    <path
       sodipodi:open="true"
       transform="matrix(0.9029172,0,0,0.9029172,259.84169,1.2903562)"
       d="M 97.75,15.112182 A 11.75,11.75 0 1 1 96.175798,9.2371813"
       sodipodi:ry="11.75"
       sodipodi:rx="11.75"
       sodipodi:cy="15.112182"
       sodipodi:cx="86"
       id="path3886"
       style="fill:none;stroke:#ffffff;stroke-width:1.1075213;stroke-linecap:square;stroke-linejoin:round;stroke-miterlimit:4;stroke-opacity:1;stroke-dasharray:none;stroke-dashoffset:0"
       sodipodi:type="arc"
       sodipodi:start="0"
       sodipodi:end="5.7595865" />
    <path
       transform="matrix(0.9029172,0,0,0.9029172,284.94398,1.2903562)"
       d="m 97.75,15.112182 a 11.75,11.75 0 1 1 -23.5,0 11.75,11.75 0 1 1 23.5,0 z"
       sodipodi:ry="11.75"
       sodipodi:rx="11.75"
       sodipodi:cy="15.112182"
       sodipodi:cx="86"
       id="path3888"
       style="fill:none;stroke:#000000;stroke-width:3.32256389;stroke-linecap:square;stroke-linejoin:round;stroke-miterlimit:4;stroke-opacity:1;stroke-dasharray:none;stroke-dashoffset:0"
       sodipodi:type="arc" />
    <path
       sodipodi:type="arc"
       style="fill:none;stroke:#ffffff;stroke-width:1.1075213;stroke-linecap:square;stroke-linejoin:round;stroke-miterlimit:4;stroke-opacity:1;stroke-dasharray:none;stroke-dashoffset:0"
       id="path3890"
       sodipodi:cx="86"
       sodipodi:cy="15.112182"
       sodipodi:rx="11.75"
       sodipodi:ry="11.75"
       d="m 97.75,15.112182 a 11.75,11.75 0 1 1 -23.5,0 11.75,11.75 0 1 1 23.5,0 z"
       transform="matrix(0.9029172,0,0,0.9029172,284.94398,1.2903562)" />
  </g>
</svg>
