<?xml version="1.0" encoding="UTF-8" standalone="no"?>
<!-- Created with Inkscape (http://www.inkscape.org/) -->

<svg
   xmlns:dc="http://purl.org/dc/elements/1.1/"
   xmlns:cc="http://creativecommons.org/ns#"
   xmlns:rdf="http://www.w3.org/1999/02/22-rdf-syntax-ns#"
   xmlns:svg="http://www.w3.org/2000/svg"
   xmlns="http://www.w3.org/2000/svg"
   xmlns:xlink="http://www.w3.org/1999/xlink"
   xmlns:sodipodi="http://sodipodi.sourceforge.net/DTD/sodipodi-0.dtd"
   xmlns:inkscape="http://www.inkscape.org/namespaces/inkscape"
   width="220"
   height="182.17157"
   id="svg2"
   version="1.1"
   inkscape:version="0.47 r22583"
   sodipodi:docname="bg.svg"
   inkscape:export-filename="C:\Projetos\Uzine\art\bg.png"
   inkscape:export-xdpi="90"
   inkscape:export-ydpi="90"
   enable-background="new">
  <defs
     id="defs4">
    <linearGradient
       inkscape:collect="always"
       id="linearGradient3982">
      <stop
         style="stop-color:#0000ff;stop-opacity:1"
         offset="0"
         id="stop3984" />
      <stop
         style="stop-color:#0000ff;stop-opacity:0"
         offset="1"
         id="stop3986" />
    </linearGradient>
    <linearGradient
       inkscape:collect="always"
       id="linearGradient3974">
      <stop
         style="stop-color:#0000ff;stop-opacity:1"
         offset="0"
         id="stop3976" />
      <stop
         style="stop-color:#0000ff;stop-opacity:0"
         offset="1"
         id="stop3978" />
    </linearGradient>
    <linearGradient
       inkscape:collect="always"
       id="linearGradient3966">
      <stop
         style="stop-color:#0000ff;stop-opacity:1"
         offset="0"
         id="stop3968" />
      <stop
         style="stop-color:#0000ff;stop-opacity:0"
         offset="1"
         id="stop3970" />
    </linearGradient>
    <linearGradient
       inkscape:collect="always"
       id="linearGradient3925">
      <stop
         style="stop-color:#000000;stop-opacity:1;"
         offset="0"
         id="stop3927" />
      <stop
         style="stop-color:#000000;stop-opacity:0;"
         offset="1"
         id="stop3929" />
    </linearGradient>
    <inkscape:perspective
       sodipodi:type="inkscape:persp3d"
       inkscape:vp_x="0 : 526.18109 : 1"
       inkscape:vp_y="0 : 1000 : 0"
       inkscape:vp_z="744.09448 : 526.18109 : 1"
       inkscape:persp3d-origin="372.04724 : 350.78739 : 1"
       id="perspective10" />
    <linearGradient
       inkscape:collect="always"
       xlink:href="#linearGradient3925"
       id="linearGradient3931"
       x1="113"
       y1="181.36218"
       x2="113"
       y2="-2.1439481"
       gradientUnits="userSpaceOnUse"
       gradientTransform="matrix(1,0,0,0.9847112,0,2.8033869)" />
    <radialGradient
       inkscape:collect="always"
       xlink:href="#linearGradient3966"
       id="radialGradient3972"
       cx="55"
       cy="72.695518"
       fx="55"
       fy="72.695518"
       r="15"
       gradientTransform="matrix(1.0687479,-3.4404715e-7,1.0733429e-6,2.8674418,-3.7812117,-135.08796)"
       gradientUnits="userSpaceOnUse" />
    <radialGradient
       inkscape:collect="always"
       xlink:href="#linearGradient3974"
       id="radialGradient3980"
       cx="53"
       cy="73.271278"
       fx="53"
       fy="73.271278"
       r="15"
       gradientTransform="matrix(1.0274754,0,0,3,-1.4561939,-144.72437)"
       gradientUnits="userSpaceOnUse" />
    <radialGradient
       inkscape:collect="always"
       xlink:href="#linearGradient3982"
       id="radialGradient3988"
       cx="54.666668"
       cy="72.362183"
       fx="54.666668"
       fy="72.362183"
       r="15"
       gradientTransform="matrix(1.7899039e-7,-2.9693544,1.1111112,0,-25.735781,234.68689)"
       gradientUnits="userSpaceOnUse" />
    <radialGradient
       inkscape:collect="always"
       xlink:href="#linearGradient3966"
       id="radialGradient3992"
       gradientUnits="userSpaceOnUse"
       gradientTransform="matrix(1.0687479,-3.4404715e-7,1.0733429e-6,2.8674418,-3.7812117,-135.08796)"
       cx="55"
       cy="72.695518"
       fx="55"
       fy="72.695518"
       r="15" />
    <radialGradient
       inkscape:collect="always"
       xlink:href="#linearGradient3966"
       id="radialGradient4204"
       gradientUnits="userSpaceOnUse"
       gradientTransform="matrix(1.0687479,-3.4404715e-7,1.0733429e-6,2.8674418,-3.7812117,-135.08796)"
       cx="55"
       cy="72.695518"
       fx="55"
       fy="72.695518"
       r="15" />
    <radialGradient
       inkscape:collect="always"
       xlink:href="#linearGradient3982"
       id="radialGradient4206"
       gradientUnits="userSpaceOnUse"
       gradientTransform="matrix(1.7899039e-7,-2.9693544,1.1111112,0,-25.735781,234.68689)"
       cx="54.666668"
       cy="72.362183"
       fx="54.666668"
       fy="72.362183"
       r="15" />
    <radialGradient
       inkscape:collect="always"
       xlink:href="#linearGradient3974"
       id="radialGradient4208"
       gradientUnits="userSpaceOnUse"
       gradientTransform="matrix(1.0274754,0,0,3,-1.4561939,-144.72437)"
       cx="53"
       cy="73.271278"
       fx="53"
       fy="73.271278"
       r="15" />
    <radialGradient
       inkscape:collect="always"
       xlink:href="#linearGradient3966"
       id="radialGradient4210"
       gradientUnits="userSpaceOnUse"
       gradientTransform="matrix(1.0687479,-3.4404715e-7,1.0733429e-6,2.8674418,-3.7812117,-135.08796)"
       cx="55"
       cy="72.695518"
       fx="55"
       fy="72.695518"
       r="15" />
    <linearGradient
       inkscape:collect="always"
       xlink:href="#linearGradient3925"
       id="linearGradient4212"
       gradientUnits="userSpaceOnUse"
       x1="113"
       y1="181.36218"
       x2="113"
       y2="-2.1439481"
       gradientTransform="translate(219,0)" />
    <filter
       inkscape:collect="always"
       id="filter4291">
      <feGaussianBlur
         inkscape:collect="always"
         stdDeviation="1.3685"
         id="feGaussianBlur4293" />
    </filter>
    <filter
       inkscape:collect="always"
       id="filter4295">
      <feGaussianBlur
         inkscape:collect="always"
         stdDeviation="1.3685"
         id="feGaussianBlur4297" />
    </filter>
    <filter
       inkscape:collect="always"
       id="filter4299">
      <feGaussianBlur
         inkscape:collect="always"
         stdDeviation="1.3685"
         id="feGaussianBlur4301" />
    </filter>
    <filter
       inkscape:collect="always"
       id="filter4303">
      <feGaussianBlur
         inkscape:collect="always"
         stdDeviation="1.3685"
         id="feGaussianBlur4305" />
    </filter>
    <filter
       inkscape:collect="always"
       id="filter4307">
      <feGaussianBlur
         inkscape:collect="always"
         stdDeviation="1.3685"
         id="feGaussianBlur4309" />
    </filter>
    <filter
       inkscape:collect="always"
       id="filter4311">
      <feGaussianBlur
         inkscape:collect="always"
         stdDeviation="1.3685"
         id="feGaussianBlur4313" />
    </filter>
    <filter
       inkscape:collect="always"
       id="filter4315">
      <feGaussianBlur
         inkscape:collect="always"
         stdDeviation="1.3685"
         id="feGaussianBlur4317" />
    </filter>
    <filter
       inkscape:collect="always"
       id="filter4319">
      <feGaussianBlur
         inkscape:collect="always"
         stdDeviation="1.3685"
         id="feGaussianBlur4321" />
    </filter>
    <filter
       inkscape:collect="always"
       id="filter4323">
      <feGaussianBlur
         inkscape:collect="always"
         stdDeviation="1.3685"
         id="feGaussianBlur4325" />
    </filter>
    <filter
       inkscape:collect="always"
       id="filter4327">
      <feGaussianBlur
         inkscape:collect="always"
         stdDeviation="1.3685"
         id="feGaussianBlur4329" />
    </filter>
    <filter
       inkscape:collect="always"
       id="filter4331">
      <feGaussianBlur
         inkscape:collect="always"
         stdDeviation="1.3685"
         id="feGaussianBlur4333" />
    </filter>
    <filter
       inkscape:collect="always"
       id="filter4335">
      <feGaussianBlur
         inkscape:collect="always"
         stdDeviation="1.3685"
         id="feGaussianBlur4337" />
    </filter>
    <filter
       inkscape:collect="always"
       id="filter4339">
      <feGaussianBlur
         inkscape:collect="always"
         stdDeviation="1.3685"
         id="feGaussianBlur4341" />
    </filter>
    <filter
       inkscape:collect="always"
       id="filter4343">
      <feGaussianBlur
         inkscape:collect="always"
         stdDeviation="1.3685"
         id="feGaussianBlur4345" />
    </filter>
    <filter
       inkscape:collect="always"
       id="filter4347">
      <feGaussianBlur
         inkscape:collect="always"
         stdDeviation="1.3685"
         id="feGaussianBlur4349" />
    </filter>
    <filter
       inkscape:collect="always"
       id="filter4351">
      <feGaussianBlur
         inkscape:collect="always"
         stdDeviation="1.3685"
         id="feGaussianBlur4353" />
    </filter>
    <filter
       inkscape:collect="always"
       id="filter4355">
      <feGaussianBlur
         inkscape:collect="always"
         stdDeviation="1.3685"
         id="feGaussianBlur4357" />
    </filter>
    <filter
       inkscape:collect="always"
       id="filter4359">
      <feGaussianBlur
         inkscape:collect="always"
         stdDeviation="1.3685"
         id="feGaussianBlur4361" />
    </filter>
    <filter
       inkscape:collect="always"
       id="filter4363">
      <feGaussianBlur
         inkscape:collect="always"
         stdDeviation="1.3685"
         id="feGaussianBlur4365" />
    </filter>
    <filter
       inkscape:collect="always"
       id="filter4367">
      <feGaussianBlur
         inkscape:collect="always"
         stdDeviation="1.3685"
         id="feGaussianBlur4369" />
    </filter>
  </defs>
  <sodipodi:namedview
     id="base"
     pagecolor="#000000"
     bordercolor="#666666"
     borderopacity="1.0"
     inkscape:pageopacity="1"
     inkscape:pageshadow="2"
     inkscape:zoom="1"
     inkscape:cx="153.17071"
     inkscape:cy="198.29335"
     inkscape:document-units="px"
     inkscape:current-layer="layer1"
     showgrid="false"
     inkscape:window-width="1280"
     inkscape:window-height="750"
     inkscape:window-x="-8"
     inkscape:window-y="-8"
     inkscape:window-maximized="1"
     showborder="true"
     inkscape:snap-global="false"
     borderlayer="false"
     inkscape:showpageshadow="false" />
  <metadata
     id="metadata7">
    <rdf:RDF>
      <cc:Work
         rdf:about="">
        <dc:format>image/svg+xml</dc:format>
        <dc:type
           rdf:resource="http://purl.org/dc/dcmitype/StillImage" />
        <dc:title />
      </cc:Work>
    </rdf:RDF>
  </metadata>
  <g
     inkscape:groupmode="layer"
     id="layer3"
     inkscape:label="shine"
     transform="translate(-0.5,-1.1906097)"
     sodipodi:insensitive="true">
    <path
       sodipodi:type="arc"
       style="fill:url(#radialGradient3972);fill-opacity:1;stroke:none"
       id="path3936"
       sodipodi:cx="53"
       sodipodi:cy="72.362183"
       sodipodi:rx="15"
       sodipodi:ry="45"
       d="m 68,72.362183 a 15,45 0 1 1 -30,0 15,45 0 1 1 30,0 z"
       transform="matrix(1.8666667,0,0,1,-64.933333,-25)" />
    <path
       transform="matrix(0.6,0,0,1.9777778,145.2,-51.754134)"
       d="m 68,72.362183 a 15,45 0 1 1 -30,0 15,45 0 1 1 30,0 z"
       sodipodi:ry="45"
       sodipodi:rx="15"
       sodipodi:cy="72.362183"
       sodipodi:cx="53"
       id="path3938"
       style="opacity:0.63461537;fill:url(#radialGradient3988);fill-opacity:1;stroke:none"
       sodipodi:type="arc" />
    <path
       transform="matrix(2.8666667,0,0,0.73333333,-61.933333,80.296582)"
       d="m 68,72.362183 a 15,45 0 1 1 -30,0 15,45 0 1 1 30,0 z"
       sodipodi:ry="45"
       sodipodi:rx="15"
       sodipodi:cy="72.362183"
       sodipodi:cx="53"
       id="path3940"
       style="fill:url(#radialGradient3980);fill-opacity:1;stroke:none"
       sodipodi:type="arc" />
    <path
       transform="matrix(3.5333333,0,0,1.1333333,-79.266667,-29.648291)"
       d="m 68,72.362183 a 15,45 0 1 1 -30,0 15,45 0 1 1 30,0 z"
       sodipodi:ry="45"
       sodipodi:rx="15"
       sodipodi:cy="72.362183"
       sodipodi:cx="53"
       id="path3990"
       style="opacity:0.67307691;fill:url(#radialGradient3992);fill-opacity:1;stroke:none"
       sodipodi:type="arc" />
  </g>
  <g
     inkscape:label="tiles"
     inkscape:groupmode="layer"
     id="layer1"
     transform="translate(-0.5,-1.1906097)">
    <g
       id="g3597"
       transform="translate(-25,-12)"
       style="opacity:0.80288462999999999;filter:url(#filter4367)">
      <path
         inkscape:transform-center-x="10"
         sodipodi:nodetypes="ccccc"
         id="rect2816"
         d="m 29,15.362183 20,20 -20,20 0,-20 0,-20 z"
         style="fill:#000078;fill-opacity:1;stroke:#000078;stroke-linejoin:round;stroke-opacity:1" />
      <path
         inkscape:transform-center-y="-10"
         style="fill:#000098;fill-opacity:1;stroke:#000098;stroke-linejoin:round;stroke-opacity:1"
         d="m 69,15.362183 -20,20 -20,-20 20,0 20,0 z"
         id="path2819"
         sodipodi:nodetypes="ccccc" />
      <path
         inkscape:transform-center-y="10"
         style="fill:#000040;fill-opacity:1;stroke:#000040;stroke-linejoin:round;stroke-opacity:1"
         d="m 29,55.362183 20,-20 20,20 -20,0 -20,0 z"
         id="path2823"
         sodipodi:nodetypes="ccccc" />
      <path
         inkscape:transform-center-x="-10"
         sodipodi:nodetypes="ccccc"
         id="path2821"
         d="m 69,55.362183 -20,-20 20,-20 0,20 0,20 z"
         style="fill:#00004c;fill-opacity:1;stroke:#00004c;stroke-linejoin:round;stroke-opacity:1" />
    </g>
    <g
       transform="translate(-25,33)"
       id="g3603"
       style="opacity:0.58173079999999999;filter:url(#filter4363)">
      <path
         style="fill:#000078;fill-opacity:1;stroke:#000078;stroke-linejoin:round;stroke-opacity:1"
         d="m 29,15.362183 20,20 -20,20 0,-20 0,-20 z"
         id="path3605"
         sodipodi:nodetypes="ccccc"
         inkscape:transform-center-x="10" />
      <path
         sodipodi:nodetypes="ccccc"
         id="path3607"
         d="m 69,15.362183 -20,20 -20,-20 20,0 20,0 z"
         style="fill:#000098;fill-opacity:1;stroke:#000098;stroke-linejoin:round;stroke-opacity:1"
         inkscape:transform-center-y="-10" />
      <path
         sodipodi:nodetypes="ccccc"
         id="path3609"
         d="m 29,55.362183 20,-20 20,20 -20,0 -20,0 z"
         style="fill:#000040;fill-opacity:1;stroke:#000040;stroke-linejoin:round;stroke-opacity:1"
         inkscape:transform-center-y="10" />
      <path
         style="fill:#00004c;fill-opacity:1;stroke:#00004c;stroke-linejoin:round;stroke-opacity:1"
         d="m 69,55.362183 -20,-20 20,-20 0,20 0,20 z"
         id="path3611"
         sodipodi:nodetypes="ccccc"
         inkscape:transform-center-x="-10" />
    </g>
    <g
       id="g3613"
       transform="translate(-25,78)"
       style="filter:url(#filter4359)">
      <path
         inkscape:transform-center-x="10"
         sodipodi:nodetypes="ccccc"
         id="path3615"
         d="m 29,15.362183 20,20 -20,20 0,-20 0,-20 z"
         style="fill:#000078;fill-opacity:1;stroke:#000078;stroke-linejoin:round;stroke-opacity:1" />
      <path
         inkscape:transform-center-y="-10"
         style="fill:#000098;fill-opacity:1;stroke:#000098;stroke-linejoin:round;stroke-opacity:1"
         d="m 69,15.362183 -20,20 -20,-20 20,0 20,0 z"
         id="path3617"
         sodipodi:nodetypes="ccccc" />
      <path
         inkscape:transform-center-y="10"
         style="fill:#000040;fill-opacity:1;stroke:#000040;stroke-linejoin:round;stroke-opacity:1"
         d="m 29,55.362183 20,-20 20,20 -20,0 -20,0 z"
         id="path3619"
         sodipodi:nodetypes="ccccc" />
      <path
         inkscape:transform-center-x="-10"
         sodipodi:nodetypes="ccccc"
         id="path3621"
         d="m 69,55.362183 -20,-20 20,-20 0,20 0,20 z"
         style="fill:#00004c;fill-opacity:1;stroke:#00004c;stroke-linejoin:round;stroke-opacity:1" />
    </g>
    <g
       transform="translate(-25,123)"
       id="g3623"
       style="opacity:0.59134617000000000;filter:url(#filter4355)">
      <path
         style="fill:#000078;fill-opacity:1;stroke:#000078;stroke-linejoin:round;stroke-opacity:1"
         d="m 29,15.362183 20,20 -20,20 0,-20 0,-20 z"
         id="path3625"
         sodipodi:nodetypes="ccccc"
         inkscape:transform-center-x="10" />
      <path
         sodipodi:nodetypes="ccccc"
         id="path3627"
         d="m 69,15.362183 -20,20 -20,-20 20,0 20,0 z"
         style="fill:#000098;fill-opacity:1;stroke:#000098;stroke-linejoin:round;stroke-opacity:1"
         inkscape:transform-center-y="-10" />
      <path
         sodipodi:nodetypes="ccccc"
         id="path3629"
         d="m 29,55.362183 20,-20 20,20 -20,0 -20,0 z"
         style="fill:#000040;fill-opacity:1;stroke:#000040;stroke-linejoin:round;stroke-opacity:1"
         inkscape:transform-center-y="10" />
      <path
         style="fill:#00004c;fill-opacity:1;stroke:#00004c;stroke-linejoin:round;stroke-opacity:1"
         d="m 69,55.362183 -20,-20 20,-20 0,20 0,20 z"
         id="path3631"
         sodipodi:nodetypes="ccccc"
         inkscape:transform-center-x="-10" />
    </g>
    <g
       transform="translate(19,-12)"
       id="g3657"
       style="filter:url(#filter4351)">
      <path
         style="fill:#000078;fill-opacity:1;stroke:#000078;stroke-linejoin:round;stroke-opacity:1"
         d="m 29,15.362183 20,20 -20,20 0,-20 0,-20 z"
         id="path3659"
         sodipodi:nodetypes="ccccc"
         inkscape:transform-center-x="10" />
      <path
         sodipodi:nodetypes="ccccc"
         id="path3661"
         d="m 69,15.362183 -20,20 -20,-20 20,0 20,0 z"
         style="fill:#000098;fill-opacity:1;stroke:#000098;stroke-linejoin:round;stroke-opacity:1"
         inkscape:transform-center-y="-10" />
      <path
         sodipodi:nodetypes="ccccc"
         id="path3663"
         d="m 29,55.362183 20,-20 20,20 -20,0 -20,0 z"
         style="fill:#000040;fill-opacity:1;stroke:#000040;stroke-linejoin:round;stroke-opacity:1"
         inkscape:transform-center-y="10" />
      <path
         style="fill:#00004c;fill-opacity:1;stroke:#00004c;stroke-linejoin:round;stroke-opacity:1"
         d="m 69,55.362183 -20,-20 20,-20 0,20 0,20 z"
         id="path3665"
         sodipodi:nodetypes="ccccc"
         inkscape:transform-center-x="-10" />
    </g>
    <g
       id="g3667"
       transform="translate(19,33)"
       style="opacity:0.79326920000000001;filter:url(#filter4347)">
      <path
         inkscape:transform-center-x="10"
         sodipodi:nodetypes="ccccc"
         id="path3669"
         d="m 29,15.362183 20,20 -20,20 0,-20 0,-20 z"
         style="fill:#000078;fill-opacity:1;stroke:#000078;stroke-linejoin:round;stroke-opacity:1" />
      <path
         inkscape:transform-center-y="-10"
         style="fill:#000098;fill-opacity:1;stroke:#000098;stroke-linejoin:round;stroke-opacity:1"
         d="m 69,15.362183 -20,20 -20,-20 20,0 20,0 z"
         id="path3671"
         sodipodi:nodetypes="ccccc" />
      <path
         inkscape:transform-center-y="10"
         style="fill:#000040;fill-opacity:1;stroke:#000040;stroke-linejoin:round;stroke-opacity:1"
         d="m 29,55.362183 20,-20 20,20 -20,0 -20,0 z"
         id="path3673"
         sodipodi:nodetypes="ccccc" />
      <path
         inkscape:transform-center-x="-10"
         sodipodi:nodetypes="ccccc"
         id="path3675"
         d="m 69,55.362183 -20,-20 20,-20 0,20 0,20 z"
         style="fill:#00004c;fill-opacity:1;stroke:#00004c;stroke-linejoin:round;stroke-opacity:1" />
    </g>
    <g
       transform="translate(19,78)"
       id="g3677"
       style="opacity:0.75480771999999985;filter:url(#filter4343)">
      <path
         style="fill:#000078;fill-opacity:1;stroke:#000078;stroke-linejoin:round;stroke-opacity:1"
         d="m 29,15.362183 20,20 -20,20 0,-20 0,-20 z"
         id="path3679"
         sodipodi:nodetypes="ccccc"
         inkscape:transform-center-x="10" />
      <path
         sodipodi:nodetypes="ccccc"
         id="path3681"
         d="m 69,15.362183 -20,20 -20,-20 20,0 20,0 z"
         style="fill:#000098;fill-opacity:1;stroke:#000098;stroke-linejoin:round;stroke-opacity:1"
         inkscape:transform-center-y="-10" />
      <path
         sodipodi:nodetypes="ccccc"
         id="path3683"
         d="m 29,55.362183 20,-20 20,20 -20,0 -20,0 z"
         style="fill:#000040;fill-opacity:1;stroke:#000040;stroke-linejoin:round;stroke-opacity:1"
         inkscape:transform-center-y="10" />
      <path
         style="fill:#00004c;fill-opacity:1;stroke:#00004c;stroke-linejoin:round;stroke-opacity:1"
         d="m 69,55.362183 -20,-20 20,-20 0,20 0,20 z"
         id="path3685"
         sodipodi:nodetypes="ccccc"
         inkscape:transform-center-x="-10" />
    </g>
    <g
       id="g3687"
       transform="translate(19,123)"
       style="opacity:0.49519234000000001;filter:url(#filter4339)">
      <path
         inkscape:transform-center-x="10"
         sodipodi:nodetypes="ccccc"
         id="path3689"
         d="m 29,15.362183 20,20 -20,20 0,-20 0,-20 z"
         style="fill:#000078;fill-opacity:1;stroke:#000078;stroke-linejoin:round;stroke-opacity:1" />
      <path
         inkscape:transform-center-y="-10"
         style="fill:#000098;fill-opacity:1;stroke:#000098;stroke-linejoin:round;stroke-opacity:1"
         d="m 69,15.362183 -20,20 -20,-20 20,0 20,0 z"
         id="path3691"
         sodipodi:nodetypes="ccccc" />
      <path
         inkscape:transform-center-y="10"
         style="fill:#000040;fill-opacity:1;stroke:#000040;stroke-linejoin:round;stroke-opacity:1"
         d="m 29,55.362183 20,-20 20,20 -20,0 -20,0 z"
         id="path3693"
         sodipodi:nodetypes="ccccc" />
      <path
         inkscape:transform-center-x="-10"
         sodipodi:nodetypes="ccccc"
         id="path3695"
         d="m 69,55.362183 -20,-20 20,-20 0,20 0,20 z"
         style="fill:#00004c;fill-opacity:1;stroke:#00004c;stroke-linejoin:round;stroke-opacity:1" />
    </g>
    <g
       id="g3699"
       transform="translate(63,-12)"
       style="opacity:0.52884617000000000;filter:url(#filter4335)">
      <path
         inkscape:transform-center-x="10"
         sodipodi:nodetypes="ccccc"
         id="path3701"
         d="m 29,15.362183 20,20 -20,20 0,-20 0,-20 z"
         style="fill:#000078;fill-opacity:1;stroke:#000078;stroke-linejoin:round;stroke-opacity:1" />
      <path
         inkscape:transform-center-y="-10"
         style="fill:#000098;fill-opacity:1;stroke:#000098;stroke-linejoin:round;stroke-opacity:1"
         d="m 69,15.362183 -20,20 -20,-20 20,0 20,0 z"
         id="path3703"
         sodipodi:nodetypes="ccccc" />
      <path
         inkscape:transform-center-y="10"
         style="fill:#000040;fill-opacity:1;stroke:#000040;stroke-linejoin:round;stroke-opacity:1"
         d="m 29,55.362183 20,-20 20,20 -20,0 -20,0 z"
         id="path3705"
         sodipodi:nodetypes="ccccc" />
      <path
         inkscape:transform-center-x="-10"
         sodipodi:nodetypes="ccccc"
         id="path3707"
         d="m 69,55.362183 -20,-20 20,-20 0,20 0,20 z"
         style="fill:#00004c;fill-opacity:1;stroke:#00004c;stroke-linejoin:round;stroke-opacity:1" />
    </g>
    <g
       transform="translate(63,33)"
       id="g3709"
       style="opacity:0.82211537000000001;filter:url(#filter4331)">
      <path
         style="fill:#000078;fill-opacity:1;stroke:#000078;stroke-linejoin:round;stroke-opacity:1"
         d="m 29,15.362183 20,20 -20,20 0,-20 0,-20 z"
         id="path3711"
         sodipodi:nodetypes="ccccc"
         inkscape:transform-center-x="10" />
      <path
         sodipodi:nodetypes="ccccc"
         id="path3713"
         d="m 69,15.362183 -20,20 -20,-20 20,0 20,0 z"
         style="fill:#000098;fill-opacity:1;stroke:#000098;stroke-linejoin:round;stroke-opacity:1"
         inkscape:transform-center-y="-10" />
      <path
         sodipodi:nodetypes="ccccc"
         id="path3715"
         d="m 29,55.362183 20,-20 20,20 -20,0 -20,0 z"
         style="fill:#000040;fill-opacity:1;stroke:#000040;stroke-linejoin:round;stroke-opacity:1"
         inkscape:transform-center-y="10" />
      <path
         style="fill:#00004c;fill-opacity:1;stroke:#00004c;stroke-linejoin:round;stroke-opacity:1"
         d="m 69,55.362183 -20,-20 20,-20 0,20 0,20 z"
         id="path3717"
         sodipodi:nodetypes="ccccc"
         inkscape:transform-center-x="-10" />
    </g>
    <g
       id="g3719"
       transform="translate(63,78)"
       style="filter:url(#filter4327)">
      <path
         inkscape:transform-center-x="10"
         sodipodi:nodetypes="ccccc"
         id="path3721"
         d="m 29,15.362183 20,20 -20,20 0,-20 0,-20 z"
         style="fill:#000078;fill-opacity:1;stroke:#000078;stroke-linejoin:round;stroke-opacity:1" />
      <path
         inkscape:transform-center-y="-10"
         style="fill:#000098;fill-opacity:1;stroke:#000098;stroke-linejoin:round;stroke-opacity:1"
         d="m 69,15.362183 -20,20 -20,-20 20,0 20,0 z"
         id="path3723"
         sodipodi:nodetypes="ccccc" />
      <path
         inkscape:transform-center-y="10"
         style="fill:#000040;fill-opacity:1;stroke:#000040;stroke-linejoin:round;stroke-opacity:1"
         d="m 29,55.362183 20,-20 20,20 -20,0 -20,0 z"
         id="path3725"
         sodipodi:nodetypes="ccccc" />
      <path
         inkscape:transform-center-x="-10"
         sodipodi:nodetypes="ccccc"
         id="path3727"
         d="m 69,55.362183 -20,-20 20,-20 0,20 0,20 z"
         style="fill:#00004c;fill-opacity:1;stroke:#00004c;stroke-linejoin:round;stroke-opacity:1" />
    </g>
    <g
       transform="translate(63,123)"
       id="g3729"
       style="opacity:0.85576920000000001;filter:url(#filter4323)">
      <path
         style="fill:#000078;fill-opacity:1;stroke:#000078;stroke-linejoin:round;stroke-opacity:1"
         d="m 29,15.362183 20,20 -20,20 0,-20 0,-20 z"
         id="path3731"
         sodipodi:nodetypes="ccccc"
         inkscape:transform-center-x="10" />
      <path
         sodipodi:nodetypes="ccccc"
         id="path3733"
         d="m 69,15.362183 -20,20 -20,-20 20,0 20,0 z"
         style="fill:#000098;fill-opacity:1;stroke:#000098;stroke-linejoin:round;stroke-opacity:1"
         inkscape:transform-center-y="-10" />
      <path
         sodipodi:nodetypes="ccccc"
         id="path3735"
         d="m 29,55.362183 20,-20 20,20 -20,0 -20,0 z"
         style="fill:#000040;fill-opacity:1;stroke:#000040;stroke-linejoin:round;stroke-opacity:1"
         inkscape:transform-center-y="10" />
      <path
         style="fill:#00004c;fill-opacity:1;stroke:#00004c;stroke-linejoin:round;stroke-opacity:1"
         d="m 69,55.362183 -20,-20 20,-20 0,20 0,20 z"
         id="path3737"
         sodipodi:nodetypes="ccccc"
         inkscape:transform-center-x="-10" />
    </g>
    <g
       transform="translate(107,-12)"
       id="g3741"
       style="filter:url(#filter4319)">
      <path
         style="fill:#000078;fill-opacity:1;stroke:#000078;stroke-linejoin:round;stroke-opacity:1"
         d="m 29,15.362183 20,20 -20,20 0,-20 0,-20 z"
         id="path3743"
         sodipodi:nodetypes="ccccc"
         inkscape:transform-center-x="10" />
      <path
         sodipodi:nodetypes="ccccc"
         id="path3745"
         d="m 69,15.362183 -20,20 -20,-20 20,0 20,0 z"
         style="fill:#000098;fill-opacity:1;stroke:#000098;stroke-linejoin:round;stroke-opacity:1"
         inkscape:transform-center-y="-10" />
      <path
         sodipodi:nodetypes="ccccc"
         id="path3747"
         d="m 29,55.362183 20,-20 20,20 -20,0 -20,0 z"
         style="fill:#000040;fill-opacity:1;stroke:#000040;stroke-linejoin:round;stroke-opacity:1"
         inkscape:transform-center-y="10" />
      <path
         style="fill:#00004c;fill-opacity:1;stroke:#00004c;stroke-linejoin:round;stroke-opacity:1"
         d="m 69,55.362183 -20,-20 20,-20 0,20 0,20 z"
         id="path3749"
         sodipodi:nodetypes="ccccc"
         inkscape:transform-center-x="-10" />
    </g>
    <g
       id="g3751"
       transform="translate(107,33)"
       style="opacity:0.80288462999999999;filter:url(#filter4315)">
      <path
         inkscape:transform-center-x="10"
         sodipodi:nodetypes="ccccc"
         id="path3753"
         d="m 29,15.362183 20,20 -20,20 0,-20 0,-20 z"
         style="fill:#000078;fill-opacity:1;stroke:#000078;stroke-linejoin:round;stroke-opacity:1" />
      <path
         inkscape:transform-center-y="-10"
         style="fill:#000098;fill-opacity:1;stroke:#000098;stroke-linejoin:round;stroke-opacity:1"
         d="m 69,15.362183 -20,20 -20,-20 20,0 20,0 z"
         id="path3755"
         sodipodi:nodetypes="ccccc" />
      <path
         inkscape:transform-center-y="10"
         style="fill:#000040;fill-opacity:1;stroke:#000040;stroke-linejoin:round;stroke-opacity:1"
         d="m 29,55.362183 20,-20 20,20 -20,0 -20,0 z"
         id="path3757"
         sodipodi:nodetypes="ccccc" />
      <path
         inkscape:transform-center-x="-10"
         sodipodi:nodetypes="ccccc"
         id="path3759"
         d="m 69,55.362183 -20,-20 20,-20 0,20 0,20 z"
         style="fill:#00004c;fill-opacity:1;stroke:#00004c;stroke-linejoin:round;stroke-opacity:1" />
    </g>
    <g
       transform="translate(107,78)"
       id="g3761"
       style="opacity:0.69230771999999996;filter:url(#filter4311)">
      <path
         style="fill:#000078;fill-opacity:1;stroke:#000078;stroke-linejoin:round;stroke-opacity:1"
         d="m 29,15.362183 20,20 -20,20 0,-20 0,-20 z"
         id="path3763"
         sodipodi:nodetypes="ccccc"
         inkscape:transform-center-x="10" />
      <path
         sodipodi:nodetypes="ccccc"
         id="path3765"
         d="m 69,15.362183 -20,20 -20,-20 20,0 20,0 z"
         style="fill:#000098;fill-opacity:1;stroke:#000098;stroke-linejoin:round;stroke-opacity:1"
         inkscape:transform-center-y="-10" />
      <path
         sodipodi:nodetypes="ccccc"
         id="path3767"
         d="m 29,55.362183 20,-20 20,20 -20,0 -20,0 z"
         style="fill:#000040;fill-opacity:1;stroke:#000040;stroke-linejoin:round;stroke-opacity:1"
         inkscape:transform-center-y="10" />
      <path
         style="fill:#00004c;fill-opacity:1;stroke:#00004c;stroke-linejoin:round;stroke-opacity:1"
         d="m 69,55.362183 -20,-20 20,-20 0,20 0,20 z"
         id="path3769"
         sodipodi:nodetypes="ccccc"
         inkscape:transform-center-x="-10" />
    </g>
    <g
       id="g3771"
       transform="translate(107,123)"
       style="opacity:0.56288464000000005;filter:url(#filter4307)">
      <path
         inkscape:transform-center-x="10"
         sodipodi:nodetypes="ccccc"
         id="path3773"
         d="m 29,15.362183 20,20 -20,20 0,-20 0,-20 z"
         style="fill:#000078;fill-opacity:1;stroke:#000078;stroke-linejoin:round;stroke-opacity:1" />
      <path
         inkscape:transform-center-y="-10"
         style="fill:#000098;fill-opacity:1;stroke:#000098;stroke-linejoin:round;stroke-opacity:1"
         d="m 69,15.362183 -20,20 -20,-20 20,0 20,0 z"
         id="path3775"
         sodipodi:nodetypes="ccccc" />
      <path
         inkscape:transform-center-y="10"
         style="fill:#000040;fill-opacity:1;stroke:#000040;stroke-linejoin:round;stroke-opacity:1"
         d="m 29,55.362183 20,-20 20,20 -20,0 -20,0 z"
         id="path3777"
         sodipodi:nodetypes="ccccc" />
      <path
         inkscape:transform-center-x="-10"
         sodipodi:nodetypes="ccccc"
         id="path3779"
         d="m 69,55.362183 -20,-20 20,-20 0,20 0,20 z"
         style="fill:#00004c;fill-opacity:1;stroke:#00004c;stroke-linejoin:round;stroke-opacity:1" />
    </g>
    <g
       id="g3783"
       transform="translate(151,-12)"
       style="opacity:0.51923079999999999;filter:url(#filter4303)">
      <path
         inkscape:transform-center-x="10"
         sodipodi:nodetypes="ccccc"
         id="path3785"
         d="m 29,15.362183 20,20 -20,20 0,-20 0,-20 z"
         style="fill:#000078;fill-opacity:1;stroke:#000078;stroke-linejoin:round;stroke-opacity:1" />
      <path
         inkscape:transform-center-y="-10"
         style="fill:#000098;fill-opacity:1;stroke:#000098;stroke-linejoin:round;stroke-opacity:1"
         d="m 69,15.362183 -20,20 -20,-20 20,0 20,0 z"
         id="path3787"
         sodipodi:nodetypes="ccccc" />
      <path
         inkscape:transform-center-y="10"
         style="fill:#000040;fill-opacity:1;stroke:#000040;stroke-linejoin:round;stroke-opacity:1"
         d="m 29,55.362183 20,-20 20,20 -20,0 -20,0 z"
         id="path3789"
         sodipodi:nodetypes="ccccc" />
      <path
         inkscape:transform-center-x="-10"
         sodipodi:nodetypes="ccccc"
         id="path3791"
         d="m 69,55.362183 -20,-20 20,-20 0,20 0,20 z"
         style="fill:#00004c;fill-opacity:1;stroke:#00004c;stroke-linejoin:round;stroke-opacity:1" />
    </g>
    <g
       transform="translate(151,33)"
       id="g3793"
       style="filter:url(#filter4299)">
      <path
         style="fill:#000078;fill-opacity:1;stroke:#000078;stroke-linejoin:round;stroke-opacity:1"
         d="m 29,15.362183 20,20 -20,20 0,-20 0,-20 z"
         id="path3795"
         sodipodi:nodetypes="ccccc"
         inkscape:transform-center-x="10" />
      <path
         sodipodi:nodetypes="ccccc"
         id="path3797"
         d="m 69,15.362183 -20,20 -20,-20 20,0 20,0 z"
         style="fill:#000098;fill-opacity:1;stroke:#000098;stroke-linejoin:round;stroke-opacity:1"
         inkscape:transform-center-y="-10" />
      <path
         sodipodi:nodetypes="ccccc"
         id="path3799"
         d="m 29,55.362183 20,-20 20,20 -20,0 -20,0 z"
         style="fill:#000040;fill-opacity:1;stroke:#000040;stroke-linejoin:round;stroke-opacity:1"
         inkscape:transform-center-y="10" />
      <path
         style="fill:#00004c;fill-opacity:1;stroke:#00004c;stroke-linejoin:round;stroke-opacity:1"
         d="m 69,55.362183 -20,-20 20,-20 0,20 0,20 z"
         id="path3801"
         sodipodi:nodetypes="ccccc"
         inkscape:transform-center-x="-10" />
    </g>
    <g
       id="g3803"
       transform="translate(151,78)"
       style="filter:url(#filter4295)">
      <path
         inkscape:transform-center-x="10"
         sodipodi:nodetypes="ccccc"
         id="path3805"
         d="m 29,15.362183 20,20 -20,20 0,-20 0,-20 z"
         style="fill:#000078;fill-opacity:1;stroke:#000078;stroke-linejoin:round;stroke-opacity:1" />
      <path
         inkscape:transform-center-y="-10"
         style="fill:#000098;fill-opacity:1;stroke:#000098;stroke-linejoin:round;stroke-opacity:1"
         d="m 69,15.362183 -20,20 -20,-20 20,0 20,0 z"
         id="path3807"
         sodipodi:nodetypes="ccccc" />
      <path
         inkscape:transform-center-y="10"
         style="fill:#000040;fill-opacity:1;stroke:#000040;stroke-linejoin:round;stroke-opacity:1"
         d="m 29,55.362183 20,-20 20,20 -20,0 -20,0 z"
         id="path3809"
         sodipodi:nodetypes="ccccc" />
      <path
         inkscape:transform-center-x="-10"
         sodipodi:nodetypes="ccccc"
         id="path3811"
         d="m 69,55.362183 -20,-20 20,-20 0,20 0,20 z"
         style="fill:#00004c;fill-opacity:1;stroke:#00004c;stroke-linejoin:round;stroke-opacity:1" />
    </g>
    <g
       transform="translate(151,123)"
       id="g3813"
       style="opacity:0.52403845999999998;filter:url(#filter4291)">
      <path
         style="fill:#000078;fill-opacity:1;stroke:#000078;stroke-linejoin:round;stroke-opacity:1"
         d="m 29,15.362183 20,20 -20,20 0,-20 0,-20 z"
         id="path3815"
         sodipodi:nodetypes="ccccc"
         inkscape:transform-center-x="10" />
      <path
         sodipodi:nodetypes="ccccc"
         id="path3817"
         d="m 69,15.362183 -20,20 -20,-20 20,0 20,0 z"
         style="fill:#000098;fill-opacity:1;stroke:#000098;stroke-linejoin:round;stroke-opacity:1"
         inkscape:transform-center-y="-10" />
      <path
         sodipodi:nodetypes="ccccc"
         id="path3819"
         d="m 29,55.362183 20,-20 20,20 -20,0 -20,0 z"
         style="fill:#000040;fill-opacity:1;stroke:#000040;stroke-linejoin:round;stroke-opacity:1"
         inkscape:transform-center-y="10" />
      <path
         style="fill:#00004c;fill-opacity:1;stroke:#00004c;stroke-linejoin:round;stroke-opacity:1"
         d="m 69,55.362183 -20,-20 20,-20 0,20 0,20 z"
         id="path3821"
         sodipodi:nodetypes="ccccc"
         inkscape:transform-center-x="-10" />
    </g>
  </g>
  <g
     inkscape:groupmode="layer"
     id="layer2"
     inkscape:label="fore"
     style="display:inline"
     transform="translate(-0.5,-1.1906097)"
     sodipodi:insensitive="true">
    <rect
       style="fill:url(#linearGradient3931);fill-opacity:1;stroke:none"
       id="rect3923"
       width="222"
       height="182.17157"
       x="0.5"
       y="1.1906097" />
  </g>
</svg>
